<mxfile host="app.diagrams.net" modified="2023-05-02T19:58:05.734Z" agent="Mozilla/5.0 (Windows NT 10.0; Win64; x64; rv:109.0) Gecko/20100101 Firefox/112.0" etag="cfzwBhaV3M7TuZw-Jag7" version="21.2.4" type="device">
  <diagram name="Page-1" id="5HpLOghq-RnM3WBxpFMf">
    <mxGraphModel dx="2526" dy="1148" grid="0" gridSize="10" guides="1" tooltips="1" connect="1" arrows="1" fold="1" page="1" pageScale="1" pageWidth="850" pageHeight="1100" math="0" shadow="0">
      <root>
        <mxCell id="0" />
        <mxCell id="1" parent="0" />
        <mxCell id="ihmXr_cGSfMxpuINrXd8-12" style="edgeStyle=orthogonalEdgeStyle;rounded=0;orthogonalLoop=1;jettySize=auto;html=1;exitX=0;exitY=1;exitDx=0;exitDy=0;" edge="1" parent="1" source="ihmXr_cGSfMxpuINrXd8-1" target="ihmXr_cGSfMxpuINrXd8-8">
          <mxGeometry relative="1" as="geometry" />
        </mxCell>
        <mxCell id="ihmXr_cGSfMxpuINrXd8-13" style="edgeStyle=orthogonalEdgeStyle;rounded=0;orthogonalLoop=1;jettySize=auto;html=1;exitX=0.25;exitY=1;exitDx=0;exitDy=0;" edge="1" parent="1" source="ihmXr_cGSfMxpuINrXd8-1" target="ihmXr_cGSfMxpuINrXd8-2">
          <mxGeometry relative="1" as="geometry" />
        </mxCell>
        <mxCell id="ihmXr_cGSfMxpuINrXd8-15" style="edgeStyle=orthogonalEdgeStyle;rounded=0;orthogonalLoop=1;jettySize=auto;html=1;exitX=1;exitY=0.75;exitDx=0;exitDy=0;" edge="1" parent="1" source="ihmXr_cGSfMxpuINrXd8-1" target="ihmXr_cGSfMxpuINrXd8-4">
          <mxGeometry relative="1" as="geometry" />
        </mxCell>
        <mxCell id="ihmXr_cGSfMxpuINrXd8-16" style="edgeStyle=orthogonalEdgeStyle;rounded=0;orthogonalLoop=1;jettySize=auto;html=1;exitX=1;exitY=0.5;exitDx=0;exitDy=0;" edge="1" parent="1" source="ihmXr_cGSfMxpuINrXd8-1" target="ihmXr_cGSfMxpuINrXd8-5">
          <mxGeometry relative="1" as="geometry" />
        </mxCell>
        <mxCell id="ihmXr_cGSfMxpuINrXd8-17" style="edgeStyle=orthogonalEdgeStyle;rounded=0;orthogonalLoop=1;jettySize=auto;html=1;exitX=0.5;exitY=0;exitDx=0;exitDy=0;" edge="1" parent="1" source="ihmXr_cGSfMxpuINrXd8-1" target="ihmXr_cGSfMxpuINrXd8-6">
          <mxGeometry relative="1" as="geometry" />
        </mxCell>
        <mxCell id="ihmXr_cGSfMxpuINrXd8-18" style="edgeStyle=orthogonalEdgeStyle;rounded=0;orthogonalLoop=1;jettySize=auto;html=1;exitX=0.25;exitY=0;exitDx=0;exitDy=0;entryX=0.643;entryY=0.975;entryDx=0;entryDy=0;entryPerimeter=0;" edge="1" parent="1" source="ihmXr_cGSfMxpuINrXd8-1" target="ihmXr_cGSfMxpuINrXd8-7">
          <mxGeometry relative="1" as="geometry" />
        </mxCell>
        <mxCell id="ihmXr_cGSfMxpuINrXd8-32" style="edgeStyle=orthogonalEdgeStyle;rounded=0;orthogonalLoop=1;jettySize=auto;html=1;exitX=0;exitY=0.5;exitDx=0;exitDy=0;entryX=1;entryY=0.5;entryDx=0;entryDy=0;" edge="1" parent="1" source="ihmXr_cGSfMxpuINrXd8-1" target="ihmXr_cGSfMxpuINrXd8-25">
          <mxGeometry relative="1" as="geometry" />
        </mxCell>
        <mxCell id="ihmXr_cGSfMxpuINrXd8-33" style="edgeStyle=orthogonalEdgeStyle;rounded=0;orthogonalLoop=1;jettySize=auto;html=1;exitX=0;exitY=0;exitDx=0;exitDy=0;entryX=0.957;entryY=0.775;entryDx=0;entryDy=0;entryPerimeter=0;" edge="1" parent="1" source="ihmXr_cGSfMxpuINrXd8-1" target="ihmXr_cGSfMxpuINrXd8-26">
          <mxGeometry relative="1" as="geometry" />
        </mxCell>
        <mxCell id="ihmXr_cGSfMxpuINrXd8-34" style="edgeStyle=orthogonalEdgeStyle;rounded=0;orthogonalLoop=1;jettySize=auto;html=1;exitX=0.5;exitY=0;exitDx=0;exitDy=0;entryX=0.5;entryY=1;entryDx=0;entryDy=0;" edge="1" parent="1" source="ihmXr_cGSfMxpuINrXd8-1" target="ihmXr_cGSfMxpuINrXd8-24">
          <mxGeometry relative="1" as="geometry" />
        </mxCell>
        <mxCell id="ihmXr_cGSfMxpuINrXd8-35" style="edgeStyle=orthogonalEdgeStyle;rounded=0;orthogonalLoop=1;jettySize=auto;html=1;exitX=0.75;exitY=0;exitDx=0;exitDy=0;entryX=0.5;entryY=1;entryDx=0;entryDy=0;" edge="1" parent="1" source="ihmXr_cGSfMxpuINrXd8-1" target="ihmXr_cGSfMxpuINrXd8-23">
          <mxGeometry relative="1" as="geometry" />
        </mxCell>
        <mxCell id="ihmXr_cGSfMxpuINrXd8-36" style="edgeStyle=orthogonalEdgeStyle;rounded=0;orthogonalLoop=1;jettySize=auto;html=1;exitX=1;exitY=0;exitDx=0;exitDy=0;entryX=0.5;entryY=1;entryDx=0;entryDy=0;" edge="1" parent="1" source="ihmXr_cGSfMxpuINrXd8-1" target="ihmXr_cGSfMxpuINrXd8-27">
          <mxGeometry relative="1" as="geometry" />
        </mxCell>
        <mxCell id="ihmXr_cGSfMxpuINrXd8-37" style="edgeStyle=orthogonalEdgeStyle;rounded=0;orthogonalLoop=1;jettySize=auto;html=1;exitX=0.75;exitY=0;exitDx=0;exitDy=0;" edge="1" parent="1" source="ihmXr_cGSfMxpuINrXd8-134" target="ihmXr_cGSfMxpuINrXd8-20">
          <mxGeometry relative="1" as="geometry" />
        </mxCell>
        <mxCell id="ihmXr_cGSfMxpuINrXd8-38" style="edgeStyle=orthogonalEdgeStyle;rounded=0;orthogonalLoop=1;jettySize=auto;html=1;exitX=1;exitY=0.25;exitDx=0;exitDy=0;entryX=0;entryY=0.5;entryDx=0;entryDy=0;" edge="1" parent="1" source="ihmXr_cGSfMxpuINrXd8-1" target="ihmXr_cGSfMxpuINrXd8-21">
          <mxGeometry relative="1" as="geometry" />
        </mxCell>
        <mxCell id="ihmXr_cGSfMxpuINrXd8-39" style="edgeStyle=orthogonalEdgeStyle;rounded=1;orthogonalLoop=1;jettySize=auto;html=1;exitX=1;exitY=1;exitDx=0;exitDy=0;shape=link;" edge="1" parent="1" source="ihmXr_cGSfMxpuINrXd8-1" target="ihmXr_cGSfMxpuINrXd8-98">
          <mxGeometry relative="1" as="geometry">
            <mxPoint x="630" y="690" as="targetPoint" />
          </mxGeometry>
        </mxCell>
        <mxCell id="ihmXr_cGSfMxpuINrXd8-40" style="edgeStyle=orthogonalEdgeStyle;rounded=0;orthogonalLoop=1;jettySize=auto;html=1;exitX=0.5;exitY=1;exitDx=0;exitDy=0;entryX=0.5;entryY=0;entryDx=0;entryDy=0;" edge="1" parent="1" source="ihmXr_cGSfMxpuINrXd8-1" target="ihmXr_cGSfMxpuINrXd8-28">
          <mxGeometry relative="1" as="geometry" />
        </mxCell>
        <mxCell id="ihmXr_cGSfMxpuINrXd8-41" style="edgeStyle=orthogonalEdgeStyle;rounded=0;orthogonalLoop=1;jettySize=auto;html=1;exitX=0;exitY=1;exitDx=0;exitDy=0;entryX=1;entryY=0;entryDx=0;entryDy=0;" edge="1" parent="1" source="ihmXr_cGSfMxpuINrXd8-1" target="ihmXr_cGSfMxpuINrXd8-29">
          <mxGeometry relative="1" as="geometry" />
        </mxCell>
        <mxCell id="ihmXr_cGSfMxpuINrXd8-63" value="" style="edgeStyle=orthogonalEdgeStyle;rounded=0;orthogonalLoop=1;jettySize=auto;html=1;" edge="1" parent="1" source="ihmXr_cGSfMxpuINrXd8-1" target="ihmXr_cGSfMxpuINrXd8-28">
          <mxGeometry relative="1" as="geometry" />
        </mxCell>
        <mxCell id="ihmXr_cGSfMxpuINrXd8-1" value="Country" style="rounded=0;whiteSpace=wrap;html=1;" vertex="1" parent="1">
          <mxGeometry x="272.5" y="470" width="120" height="50" as="geometry" />
        </mxCell>
        <mxCell id="ihmXr_cGSfMxpuINrXd8-2" value="Country Code" style="ellipse;whiteSpace=wrap;html=1;" vertex="1" parent="1">
          <mxGeometry x="202.5" y="650" width="70" height="40" as="geometry" />
        </mxCell>
        <mxCell id="ihmXr_cGSfMxpuINrXd8-4" value="Hemisphere" style="ellipse;whiteSpace=wrap;html=1;" vertex="1" parent="1">
          <mxGeometry x="452.5" y="550" width="70" height="40" as="geometry" />
        </mxCell>
        <mxCell id="ihmXr_cGSfMxpuINrXd8-5" value="Name" style="ellipse;whiteSpace=wrap;html=1;" vertex="1" parent="1">
          <mxGeometry x="372.5" y="400" width="70" height="40" as="geometry" />
        </mxCell>
        <mxCell id="ihmXr_cGSfMxpuINrXd8-6" value="Area" style="ellipse;whiteSpace=wrap;html=1;" vertex="1" parent="1">
          <mxGeometry x="497.5" y="340" width="70" height="40" as="geometry" />
        </mxCell>
        <mxCell id="ihmXr_cGSfMxpuINrXd8-7" value="Population" style="ellipse;whiteSpace=wrap;html=1;" vertex="1" parent="1">
          <mxGeometry x="192.5" y="390" width="70" height="40" as="geometry" />
        </mxCell>
        <mxCell id="ihmXr_cGSfMxpuINrXd8-8" value="Continent" style="ellipse;whiteSpace=wrap;html=1;" vertex="1" parent="1">
          <mxGeometry x="172.5" y="530" width="70" height="40" as="geometry" />
        </mxCell>
        <mxCell id="ihmXr_cGSfMxpuINrXd8-9" value="Region" style="ellipse;whiteSpace=wrap;html=1;" vertex="1" parent="1">
          <mxGeometry x="152.5" y="470" width="70" height="40" as="geometry" />
        </mxCell>
        <mxCell id="ihmXr_cGSfMxpuINrXd8-20" value="Surface Area" style="ellipse;whiteSpace=wrap;html=1;" vertex="1" parent="1">
          <mxGeometry x="452.5" y="390" width="70" height="40" as="geometry" />
        </mxCell>
        <mxCell id="ihmXr_cGSfMxpuINrXd8-21" value="Life Expectancy" style="ellipse;whiteSpace=wrap;html=1;" vertex="1" parent="1">
          <mxGeometry x="472.5" y="440" width="70" height="40" as="geometry" />
        </mxCell>
        <mxCell id="ihmXr_cGSfMxpuINrXd8-22" value="IndepYear" style="ellipse;whiteSpace=wrap;html=1;" vertex="1" parent="1">
          <mxGeometry x="380" y="540" width="70" height="40" as="geometry" />
        </mxCell>
        <mxCell id="ihmXr_cGSfMxpuINrXd8-23" value="GNP" style="ellipse;whiteSpace=wrap;html=1;" vertex="1" parent="1">
          <mxGeometry x="370" y="300" width="70" height="40" as="geometry" />
        </mxCell>
        <mxCell id="ihmXr_cGSfMxpuINrXd8-24" value="GNPold" style="ellipse;whiteSpace=wrap;html=1;" vertex="1" parent="1">
          <mxGeometry x="232.5" y="340" width="70" height="40" as="geometry" />
        </mxCell>
        <mxCell id="ihmXr_cGSfMxpuINrXd8-25" value="Code2" style="ellipse;whiteSpace=wrap;html=1;" vertex="1" parent="1">
          <mxGeometry x="82.5" y="510" width="70" height="40" as="geometry" />
        </mxCell>
        <mxCell id="ihmXr_cGSfMxpuINrXd8-26" value="Capital" style="ellipse;whiteSpace=wrap;html=1;" vertex="1" parent="1">
          <mxGeometry x="122.5" y="420" width="70" height="40" as="geometry" />
        </mxCell>
        <mxCell id="ihmXr_cGSfMxpuINrXd8-27" value="Head of State" style="ellipse;whiteSpace=wrap;html=1;" vertex="1" parent="1">
          <mxGeometry x="412.5" y="340" width="70" height="40" as="geometry" />
        </mxCell>
        <mxCell id="ihmXr_cGSfMxpuINrXd8-28" value="Governement Form" style="ellipse;whiteSpace=wrap;html=1;" vertex="1" parent="1">
          <mxGeometry x="342.5" y="610" width="70" height="40" as="geometry" />
        </mxCell>
        <mxCell id="ihmXr_cGSfMxpuINrXd8-29" value="Local Name" style="ellipse;whiteSpace=wrap;html=1;" vertex="1" parent="1">
          <mxGeometry x="132.5" y="600" width="70" height="40" as="geometry" />
        </mxCell>
        <mxCell id="ihmXr_cGSfMxpuINrXd8-48" style="edgeStyle=orthogonalEdgeStyle;rounded=0;orthogonalLoop=1;jettySize=auto;html=1;exitX=0.5;exitY=0;exitDx=0;exitDy=0;" edge="1" parent="1" source="ihmXr_cGSfMxpuINrXd8-42" target="ihmXr_cGSfMxpuINrXd8-47">
          <mxGeometry relative="1" as="geometry" />
        </mxCell>
        <mxCell id="ihmXr_cGSfMxpuINrXd8-49" style="edgeStyle=orthogonalEdgeStyle;rounded=0;orthogonalLoop=1;jettySize=auto;html=1;exitX=0;exitY=0;exitDx=0;exitDy=0;" edge="1" parent="1" source="ihmXr_cGSfMxpuINrXd8-42" target="ihmXr_cGSfMxpuINrXd8-46">
          <mxGeometry relative="1" as="geometry" />
        </mxCell>
        <mxCell id="ihmXr_cGSfMxpuINrXd8-50" style="edgeStyle=orthogonalEdgeStyle;rounded=0;orthogonalLoop=1;jettySize=auto;html=1;exitX=0;exitY=0.5;exitDx=0;exitDy=0;" edge="1" parent="1" source="ihmXr_cGSfMxpuINrXd8-42" target="ihmXr_cGSfMxpuINrXd8-45">
          <mxGeometry relative="1" as="geometry" />
        </mxCell>
        <mxCell id="ihmXr_cGSfMxpuINrXd8-51" style="edgeStyle=orthogonalEdgeStyle;rounded=0;orthogonalLoop=1;jettySize=auto;html=1;exitX=1;exitY=0.5;exitDx=0;exitDy=0;" edge="1" parent="1" source="ihmXr_cGSfMxpuINrXd8-42" target="ihmXr_cGSfMxpuINrXd8-44">
          <mxGeometry relative="1" as="geometry" />
        </mxCell>
        <mxCell id="ihmXr_cGSfMxpuINrXd8-52" style="edgeStyle=orthogonalEdgeStyle;rounded=0;orthogonalLoop=1;jettySize=auto;html=1;exitX=1;exitY=0;exitDx=0;exitDy=0;" edge="1" parent="1" source="ihmXr_cGSfMxpuINrXd8-42" target="ihmXr_cGSfMxpuINrXd8-43">
          <mxGeometry relative="1" as="geometry" />
        </mxCell>
        <mxCell id="ihmXr_cGSfMxpuINrXd8-42" value="Continent" style="rounded=0;whiteSpace=wrap;html=1;" vertex="1" parent="1">
          <mxGeometry x="120" y="120" width="120" height="60" as="geometry" />
        </mxCell>
        <mxCell id="ihmXr_cGSfMxpuINrXd8-43" value="Area" style="ellipse;whiteSpace=wrap;html=1;" vertex="1" parent="1">
          <mxGeometry x="222.5" y="70" width="70" height="40" as="geometry" />
        </mxCell>
        <mxCell id="ihmXr_cGSfMxpuINrXd8-44" value="Hemisphere" style="ellipse;whiteSpace=wrap;html=1;" vertex="1" parent="1">
          <mxGeometry x="252.5" y="140" width="70" height="40" as="geometry" />
        </mxCell>
        <mxCell id="ihmXr_cGSfMxpuINrXd8-45" value="Name" style="ellipse;whiteSpace=wrap;html=1;" vertex="1" parent="1">
          <mxGeometry x="30" y="150" width="70" height="40" as="geometry" />
        </mxCell>
        <mxCell id="ihmXr_cGSfMxpuINrXd8-46" value="# of Countries" style="ellipse;whiteSpace=wrap;html=1;" vertex="1" parent="1">
          <mxGeometry x="50" y="50" width="70" height="40" as="geometry" />
        </mxCell>
        <mxCell id="ihmXr_cGSfMxpuINrXd8-47" value="Population" style="ellipse;whiteSpace=wrap;html=1;" vertex="1" parent="1">
          <mxGeometry x="140" y="40" width="70" height="40" as="geometry" />
        </mxCell>
        <mxCell id="ihmXr_cGSfMxpuINrXd8-53" value="Has" style="rhombus;whiteSpace=wrap;html=1;" vertex="1" parent="1">
          <mxGeometry x="290" y="230" width="80" height="80" as="geometry" />
        </mxCell>
        <mxCell id="ihmXr_cGSfMxpuINrXd8-54" value="" style="shape=link;html=1;rounded=0;exitX=0.5;exitY=1;exitDx=0;exitDy=0;" edge="1" parent="1" source="ihmXr_cGSfMxpuINrXd8-42" target="ihmXr_cGSfMxpuINrXd8-53">
          <mxGeometry width="100" relative="1" as="geometry">
            <mxPoint x="110" y="270" as="sourcePoint" />
            <mxPoint x="180" y="260" as="targetPoint" />
          </mxGeometry>
        </mxCell>
        <mxCell id="ihmXr_cGSfMxpuINrXd8-62" value="" style="shape=link;html=1;rounded=0;entryX=0.5;entryY=0;entryDx=0;entryDy=0;width=6;" edge="1" parent="1" source="ihmXr_cGSfMxpuINrXd8-53" target="ihmXr_cGSfMxpuINrXd8-1">
          <mxGeometry width="100" relative="1" as="geometry">
            <mxPoint x="330" y="240" as="sourcePoint" />
            <mxPoint x="330" y="340" as="targetPoint" />
          </mxGeometry>
        </mxCell>
        <mxCell id="ihmXr_cGSfMxpuINrXd8-64" value="Has" style="rhombus;whiteSpace=wrap;html=1;rounded=0;" vertex="1" parent="1">
          <mxGeometry x="292.5" y="670" width="80" height="80" as="geometry" />
        </mxCell>
        <mxCell id="ihmXr_cGSfMxpuINrXd8-67" value="" style="shape=link;html=1;rounded=0;entryX=0.5;entryY=0;entryDx=0;entryDy=0;exitX=0.5;exitY=1;exitDx=0;exitDy=0;" edge="1" parent="1" source="ihmXr_cGSfMxpuINrXd8-1" target="ihmXr_cGSfMxpuINrXd8-64">
          <mxGeometry width="100" relative="1" as="geometry">
            <mxPoint x="320" y="520" as="sourcePoint" />
            <mxPoint x="420" y="520" as="targetPoint" />
          </mxGeometry>
        </mxCell>
        <mxCell id="ihmXr_cGSfMxpuINrXd8-75" style="edgeStyle=orthogonalEdgeStyle;rounded=0;orthogonalLoop=1;jettySize=auto;html=1;exitX=1;exitY=1;exitDx=0;exitDy=0;entryX=0;entryY=0.5;entryDx=0;entryDy=0;" edge="1" parent="1" source="ihmXr_cGSfMxpuINrXd8-68" target="ihmXr_cGSfMxpuINrXd8-71">
          <mxGeometry relative="1" as="geometry" />
        </mxCell>
        <mxCell id="ihmXr_cGSfMxpuINrXd8-76" style="edgeStyle=orthogonalEdgeStyle;rounded=0;orthogonalLoop=1;jettySize=auto;html=1;exitX=1;exitY=0;exitDx=0;exitDy=0;" edge="1" parent="1" source="ihmXr_cGSfMxpuINrXd8-68" target="ihmXr_cGSfMxpuINrXd8-69">
          <mxGeometry relative="1" as="geometry" />
        </mxCell>
        <mxCell id="ihmXr_cGSfMxpuINrXd8-77" style="edgeStyle=orthogonalEdgeStyle;rounded=0;orthogonalLoop=1;jettySize=auto;html=1;exitX=0.25;exitY=0;exitDx=0;exitDy=0;entryX=1;entryY=0.5;entryDx=0;entryDy=0;" edge="1" parent="1" source="ihmXr_cGSfMxpuINrXd8-68" target="ihmXr_cGSfMxpuINrXd8-70">
          <mxGeometry relative="1" as="geometry" />
        </mxCell>
        <mxCell id="ihmXr_cGSfMxpuINrXd8-79" style="edgeStyle=orthogonalEdgeStyle;rounded=0;orthogonalLoop=1;jettySize=auto;html=1;exitX=0;exitY=1;exitDx=0;exitDy=0;entryX=1;entryY=0;entryDx=0;entryDy=0;" edge="1" parent="1" source="ihmXr_cGSfMxpuINrXd8-68" target="ihmXr_cGSfMxpuINrXd8-73">
          <mxGeometry relative="1" as="geometry" />
        </mxCell>
        <mxCell id="ihmXr_cGSfMxpuINrXd8-80" style="edgeStyle=orthogonalEdgeStyle;rounded=0;orthogonalLoop=1;jettySize=auto;html=1;exitX=0;exitY=0.25;exitDx=0;exitDy=0;entryX=1;entryY=0.5;entryDx=0;entryDy=0;" edge="1" parent="1" source="ihmXr_cGSfMxpuINrXd8-68" target="ihmXr_cGSfMxpuINrXd8-72">
          <mxGeometry relative="1" as="geometry" />
        </mxCell>
        <mxCell id="ihmXr_cGSfMxpuINrXd8-68" value="City" style="rounded=0;whiteSpace=wrap;html=1;" vertex="1" parent="1">
          <mxGeometry x="272.5" y="850" width="120" height="50" as="geometry" />
        </mxCell>
        <mxCell id="ihmXr_cGSfMxpuINrXd8-69" value="Country Code" style="ellipse;whiteSpace=wrap;html=1;" vertex="1" parent="1">
          <mxGeometry x="425" y="810" width="70" height="40" as="geometry" />
        </mxCell>
        <mxCell id="ihmXr_cGSfMxpuINrXd8-70" value="ID" style="ellipse;whiteSpace=wrap;html=1;" vertex="1" parent="1">
          <mxGeometry x="180" y="770" width="70" height="40" as="geometry" />
        </mxCell>
        <mxCell id="ihmXr_cGSfMxpuINrXd8-71" value="Name" style="ellipse;whiteSpace=wrap;html=1;" vertex="1" parent="1">
          <mxGeometry x="427.5" y="890" width="70" height="40" as="geometry" />
        </mxCell>
        <mxCell id="ihmXr_cGSfMxpuINrXd8-72" value="Population" style="ellipse;whiteSpace=wrap;html=1;" vertex="1" parent="1">
          <mxGeometry x="162.5" y="840" width="70" height="40" as="geometry" />
        </mxCell>
        <mxCell id="ihmXr_cGSfMxpuINrXd8-73" value="District" style="ellipse;whiteSpace=wrap;html=1;" vertex="1" parent="1">
          <mxGeometry x="180" y="890" width="70" height="40" as="geometry" />
        </mxCell>
        <mxCell id="ihmXr_cGSfMxpuINrXd8-74" value="" style="shape=link;html=1;rounded=0;" edge="1" parent="1" source="ihmXr_cGSfMxpuINrXd8-64">
          <mxGeometry width="100" relative="1" as="geometry">
            <mxPoint x="332.5" y="750" as="sourcePoint" />
            <mxPoint x="332.5" y="850" as="targetPoint" />
          </mxGeometry>
        </mxCell>
        <mxCell id="ihmXr_cGSfMxpuINrXd8-81" value="" style="shape=link;html=1;rounded=0;" edge="1" parent="1" target="ihmXr_cGSfMxpuINrXd8-82">
          <mxGeometry width="100" relative="1" as="geometry">
            <mxPoint x="390" y="500" as="sourcePoint" />
            <mxPoint x="580" y="500" as="targetPoint" />
          </mxGeometry>
        </mxCell>
        <mxCell id="ihmXr_cGSfMxpuINrXd8-82" value="Has" style="rhombus;whiteSpace=wrap;html=1;" vertex="1" parent="1">
          <mxGeometry x="540" y="460" width="80" height="80" as="geometry" />
        </mxCell>
        <mxCell id="ihmXr_cGSfMxpuINrXd8-83" value="" style="shape=link;html=1;rounded=0;" edge="1" parent="1" target="ihmXr_cGSfMxpuINrXd8-84">
          <mxGeometry width="100" relative="1" as="geometry">
            <mxPoint x="620" y="499.5" as="sourcePoint" />
            <mxPoint x="720" y="499.5" as="targetPoint" />
          </mxGeometry>
        </mxCell>
        <mxCell id="ihmXr_cGSfMxpuINrXd8-94" style="edgeStyle=orthogonalEdgeStyle;rounded=0;orthogonalLoop=1;jettySize=auto;html=1;exitX=1;exitY=0;exitDx=0;exitDy=0;entryX=0.5;entryY=1;entryDx=0;entryDy=0;" edge="1" parent="1" source="ihmXr_cGSfMxpuINrXd8-84" target="ihmXr_cGSfMxpuINrXd8-91">
          <mxGeometry relative="1" as="geometry" />
        </mxCell>
        <mxCell id="ihmXr_cGSfMxpuINrXd8-95" style="edgeStyle=orthogonalEdgeStyle;rounded=0;orthogonalLoop=1;jettySize=auto;html=1;exitX=0.25;exitY=0;exitDx=0;exitDy=0;entryX=0.7;entryY=1.025;entryDx=0;entryDy=0;entryPerimeter=0;" edge="1" parent="1" source="ihmXr_cGSfMxpuINrXd8-84" target="ihmXr_cGSfMxpuINrXd8-90">
          <mxGeometry relative="1" as="geometry" />
        </mxCell>
        <mxCell id="ihmXr_cGSfMxpuINrXd8-96" style="edgeStyle=orthogonalEdgeStyle;rounded=0;orthogonalLoop=1;jettySize=auto;html=1;exitX=0;exitY=1;exitDx=0;exitDy=0;entryX=0.5;entryY=0;entryDx=0;entryDy=0;" edge="1" parent="1" source="ihmXr_cGSfMxpuINrXd8-84" target="ihmXr_cGSfMxpuINrXd8-92">
          <mxGeometry relative="1" as="geometry" />
        </mxCell>
        <mxCell id="ihmXr_cGSfMxpuINrXd8-97" style="edgeStyle=orthogonalEdgeStyle;rounded=0;orthogonalLoop=1;jettySize=auto;html=1;exitX=0.75;exitY=1;exitDx=0;exitDy=0;entryX=0.163;entryY=0;entryDx=0;entryDy=0;entryPerimeter=0;" edge="1" parent="1" source="ihmXr_cGSfMxpuINrXd8-84" target="ihmXr_cGSfMxpuINrXd8-93">
          <mxGeometry relative="1" as="geometry" />
        </mxCell>
        <mxCell id="ihmXr_cGSfMxpuINrXd8-84" value="Country Language" style="rounded=0;whiteSpace=wrap;html=1;" vertex="1" parent="1">
          <mxGeometry x="660" y="470" width="120" height="59.5" as="geometry" />
        </mxCell>
        <mxCell id="ihmXr_cGSfMxpuINrXd8-90" value="Country Code" style="ellipse;whiteSpace=wrap;html=1;" vertex="1" parent="1">
          <mxGeometry x="620" y="410" width="90" height="40" as="geometry" />
        </mxCell>
        <mxCell id="ihmXr_cGSfMxpuINrXd8-91" value="Language" style="ellipse;whiteSpace=wrap;html=1;" vertex="1" parent="1">
          <mxGeometry x="740" y="415" width="90" height="35" as="geometry" />
        </mxCell>
        <mxCell id="ihmXr_cGSfMxpuINrXd8-92" value="IsOfficial" style="ellipse;whiteSpace=wrap;html=1;" vertex="1" parent="1">
          <mxGeometry x="610" y="550" width="80" height="40" as="geometry" />
        </mxCell>
        <mxCell id="ihmXr_cGSfMxpuINrXd8-93" value="Percentage" style="ellipse;whiteSpace=wrap;html=1;" vertex="1" parent="1">
          <mxGeometry x="750" y="550" width="80" height="40" as="geometry" />
        </mxCell>
        <mxCell id="ihmXr_cGSfMxpuINrXd8-98" value="&lt;div&gt;Participated &lt;br&gt;&lt;/div&gt;&lt;div&gt;In&lt;br&gt;&lt;/div&gt;" style="rhombus;whiteSpace=wrap;html=1;" vertex="1" parent="1">
          <mxGeometry x="590" y="650" width="80" height="80" as="geometry" />
        </mxCell>
        <mxCell id="ihmXr_cGSfMxpuINrXd8-99" value="" style="shape=link;html=1;rounded=0;" edge="1" parent="1" source="ihmXr_cGSfMxpuINrXd8-98" target="ihmXr_cGSfMxpuINrXd8-100">
          <mxGeometry width="100" relative="1" as="geometry">
            <mxPoint x="630" y="730" as="sourcePoint" />
            <mxPoint x="630" y="830" as="targetPoint" />
          </mxGeometry>
        </mxCell>
        <mxCell id="ihmXr_cGSfMxpuINrXd8-110" style="edgeStyle=orthogonalEdgeStyle;rounded=0;orthogonalLoop=1;jettySize=auto;html=1;exitX=0;exitY=0;exitDx=0;exitDy=0;entryX=1;entryY=1;entryDx=0;entryDy=0;" edge="1" parent="1" source="ihmXr_cGSfMxpuINrXd8-100" target="ihmXr_cGSfMxpuINrXd8-101">
          <mxGeometry relative="1" as="geometry" />
        </mxCell>
        <mxCell id="ihmXr_cGSfMxpuINrXd8-111" style="edgeStyle=orthogonalEdgeStyle;rounded=0;orthogonalLoop=1;jettySize=auto;html=1;exitX=0;exitY=0.75;exitDx=0;exitDy=0;" edge="1" parent="1" source="ihmXr_cGSfMxpuINrXd8-100" target="ihmXr_cGSfMxpuINrXd8-108">
          <mxGeometry relative="1" as="geometry" />
        </mxCell>
        <mxCell id="ihmXr_cGSfMxpuINrXd8-112" style="edgeStyle=orthogonalEdgeStyle;rounded=0;orthogonalLoop=1;jettySize=auto;html=1;exitX=0;exitY=1;exitDx=0;exitDy=0;entryX=0.7;entryY=0.02;entryDx=0;entryDy=0;entryPerimeter=0;" edge="1" parent="1" source="ihmXr_cGSfMxpuINrXd8-100" target="ihmXr_cGSfMxpuINrXd8-103">
          <mxGeometry relative="1" as="geometry" />
        </mxCell>
        <mxCell id="ihmXr_cGSfMxpuINrXd8-113" style="edgeStyle=orthogonalEdgeStyle;rounded=0;orthogonalLoop=1;jettySize=auto;html=1;exitX=0.25;exitY=1;exitDx=0;exitDy=0;entryX=0.338;entryY=0.06;entryDx=0;entryDy=0;entryPerimeter=0;" edge="1" parent="1" source="ihmXr_cGSfMxpuINrXd8-100" target="ihmXr_cGSfMxpuINrXd8-109">
          <mxGeometry relative="1" as="geometry" />
        </mxCell>
        <mxCell id="ihmXr_cGSfMxpuINrXd8-114" style="edgeStyle=orthogonalEdgeStyle;rounded=0;orthogonalLoop=1;jettySize=auto;html=1;exitX=0.5;exitY=1;exitDx=0;exitDy=0;entryX=0.243;entryY=0;entryDx=0;entryDy=0;entryPerimeter=0;" edge="1" parent="1" source="ihmXr_cGSfMxpuINrXd8-100" target="ihmXr_cGSfMxpuINrXd8-104">
          <mxGeometry relative="1" as="geometry" />
        </mxCell>
        <mxCell id="ihmXr_cGSfMxpuINrXd8-115" style="edgeStyle=orthogonalEdgeStyle;rounded=0;orthogonalLoop=1;jettySize=auto;html=1;exitX=1;exitY=1;exitDx=0;exitDy=0;entryX=0.071;entryY=0.32;entryDx=0;entryDy=0;entryPerimeter=0;" edge="1" parent="1" source="ihmXr_cGSfMxpuINrXd8-100" target="ihmXr_cGSfMxpuINrXd8-105">
          <mxGeometry relative="1" as="geometry" />
        </mxCell>
        <mxCell id="ihmXr_cGSfMxpuINrXd8-116" style="edgeStyle=orthogonalEdgeStyle;rounded=0;orthogonalLoop=1;jettySize=auto;html=1;exitX=1;exitY=0.5;exitDx=0;exitDy=0;entryX=0.011;entryY=0.74;entryDx=0;entryDy=0;entryPerimeter=0;" edge="1" parent="1" source="ihmXr_cGSfMxpuINrXd8-100" target="ihmXr_cGSfMxpuINrXd8-106">
          <mxGeometry relative="1" as="geometry" />
        </mxCell>
        <mxCell id="ihmXr_cGSfMxpuINrXd8-117" style="edgeStyle=orthogonalEdgeStyle;rounded=0;orthogonalLoop=1;jettySize=auto;html=1;exitX=1;exitY=0;exitDx=0;exitDy=0;entryX=0.386;entryY=1;entryDx=0;entryDy=0;entryPerimeter=0;" edge="1" parent="1" source="ihmXr_cGSfMxpuINrXd8-100" target="ihmXr_cGSfMxpuINrXd8-102">
          <mxGeometry relative="1" as="geometry" />
        </mxCell>
        <mxCell id="ihmXr_cGSfMxpuINrXd8-118" style="edgeStyle=orthogonalEdgeStyle;rounded=0;orthogonalLoop=1;jettySize=auto;html=1;exitX=1;exitY=0.25;exitDx=0;exitDy=0;entryX=0;entryY=1;entryDx=0;entryDy=0;" edge="1" parent="1" source="ihmXr_cGSfMxpuINrXd8-100" target="ihmXr_cGSfMxpuINrXd8-107">
          <mxGeometry relative="1" as="geometry" />
        </mxCell>
        <mxCell id="ihmXr_cGSfMxpuINrXd8-100" value="Tokyo Olympic" style="rounded=0;whiteSpace=wrap;html=1;" vertex="1" parent="1">
          <mxGeometry x="570" y="800" width="120" height="60" as="geometry" />
        </mxCell>
        <mxCell id="ihmXr_cGSfMxpuINrXd8-101" value="Continent" style="ellipse;whiteSpace=wrap;html=1;" vertex="1" parent="1">
          <mxGeometry x="495" y="740" width="70" height="50" as="geometry" />
        </mxCell>
        <mxCell id="ihmXr_cGSfMxpuINrXd8-102" value="Country" style="ellipse;whiteSpace=wrap;html=1;" vertex="1" parent="1">
          <mxGeometry x="670" y="730" width="70" height="50" as="geometry" />
        </mxCell>
        <mxCell id="ihmXr_cGSfMxpuINrXd8-103" value="Year" style="ellipse;whiteSpace=wrap;html=1;" vertex="1" parent="1">
          <mxGeometry x="520" y="880" width="70" height="50" as="geometry" />
        </mxCell>
        <mxCell id="ihmXr_cGSfMxpuINrXd8-104" value="Gold Medal" style="ellipse;whiteSpace=wrap;html=1;" vertex="1" parent="1">
          <mxGeometry x="620" y="885" width="70" height="50" as="geometry" />
        </mxCell>
        <mxCell id="ihmXr_cGSfMxpuINrXd8-105" value="Bronze Medal" style="ellipse;whiteSpace=wrap;html=1;" vertex="1" parent="1">
          <mxGeometry x="700" y="850" width="70" height="50" as="geometry" />
        </mxCell>
        <mxCell id="ihmXr_cGSfMxpuINrXd8-106" value="Silver Medal" style="ellipse;whiteSpace=wrap;html=1;" vertex="1" parent="1">
          <mxGeometry x="730" y="790" width="90" height="50" as="geometry" />
        </mxCell>
        <mxCell id="ihmXr_cGSfMxpuINrXd8-107" value="Total" style="ellipse;whiteSpace=wrap;html=1;" vertex="1" parent="1">
          <mxGeometry x="780" y="690" width="70" height="40" as="geometry" />
        </mxCell>
        <mxCell id="ihmXr_cGSfMxpuINrXd8-108" value="Rank" style="ellipse;whiteSpace=wrap;html=1;" vertex="1" parent="1">
          <mxGeometry x="500" y="810" width="70" height="50" as="geometry" />
        </mxCell>
        <mxCell id="ihmXr_cGSfMxpuINrXd8-109" value="Country Code" style="ellipse;whiteSpace=wrap;html=1;" vertex="1" parent="1">
          <mxGeometry x="580" y="950" width="80" height="50" as="geometry" />
        </mxCell>
        <mxCell id="ihmXr_cGSfMxpuINrXd8-120" value="" style="shape=link;html=1;rounded=0;" edge="1" parent="1" target="ihmXr_cGSfMxpuINrXd8-121">
          <mxGeometry width="100" relative="1" as="geometry">
            <mxPoint x="365" y="269.5" as="sourcePoint" />
            <mxPoint x="560" y="110" as="targetPoint" />
          </mxGeometry>
        </mxCell>
        <mxCell id="ihmXr_cGSfMxpuINrXd8-126" style="edgeStyle=orthogonalEdgeStyle;rounded=0;orthogonalLoop=1;jettySize=auto;html=1;exitX=0.75;exitY=0;exitDx=0;exitDy=0;" edge="1" parent="1" source="ihmXr_cGSfMxpuINrXd8-121" target="ihmXr_cGSfMxpuINrXd8-124">
          <mxGeometry relative="1" as="geometry" />
        </mxCell>
        <mxCell id="ihmXr_cGSfMxpuINrXd8-127" style="edgeStyle=orthogonalEdgeStyle;rounded=0;orthogonalLoop=1;jettySize=auto;html=1;exitX=0;exitY=0.25;exitDx=0;exitDy=0;" edge="1" parent="1" source="ihmXr_cGSfMxpuINrXd8-121" target="ihmXr_cGSfMxpuINrXd8-123">
          <mxGeometry relative="1" as="geometry" />
        </mxCell>
        <mxCell id="ihmXr_cGSfMxpuINrXd8-128" style="edgeStyle=orthogonalEdgeStyle;rounded=0;orthogonalLoop=1;jettySize=auto;html=1;exitX=0.5;exitY=1;exitDx=0;exitDy=0;entryX=0.5;entryY=0;entryDx=0;entryDy=0;" edge="1" parent="1" source="ihmXr_cGSfMxpuINrXd8-121" target="ihmXr_cGSfMxpuINrXd8-125">
          <mxGeometry relative="1" as="geometry" />
        </mxCell>
        <mxCell id="ihmXr_cGSfMxpuINrXd8-129" style="edgeStyle=orthogonalEdgeStyle;rounded=0;orthogonalLoop=1;jettySize=auto;html=1;exitX=1;exitY=0.5;exitDx=0;exitDy=0;entryX=0.038;entryY=0.36;entryDx=0;entryDy=0;entryPerimeter=0;" edge="1" parent="1" source="ihmXr_cGSfMxpuINrXd8-121" target="ihmXr_cGSfMxpuINrXd8-122">
          <mxGeometry relative="1" as="geometry" />
        </mxCell>
        <mxCell id="ihmXr_cGSfMxpuINrXd8-121" value="GDP" style="rounded=0;whiteSpace=wrap;html=1;" vertex="1" parent="1">
          <mxGeometry x="500" y="80" width="120" height="60" as="geometry" />
        </mxCell>
        <mxCell id="ihmXr_cGSfMxpuINrXd8-122" value="GDP Constant" style="ellipse;whiteSpace=wrap;html=1;" vertex="1" parent="1">
          <mxGeometry x="640" y="100" width="80" height="50" as="geometry" />
        </mxCell>
        <mxCell id="ihmXr_cGSfMxpuINrXd8-123" value="Country Code" style="ellipse;whiteSpace=wrap;html=1;" vertex="1" parent="1">
          <mxGeometry x="392.5" y="80" width="80" height="50" as="geometry" />
        </mxCell>
        <mxCell id="ihmXr_cGSfMxpuINrXd8-124" value="Year" style="ellipse;whiteSpace=wrap;html=1;" vertex="1" parent="1">
          <mxGeometry x="515" y="10" width="80" height="50" as="geometry" />
        </mxCell>
        <mxCell id="ihmXr_cGSfMxpuINrXd8-125" value="Country" style="ellipse;whiteSpace=wrap;html=1;" vertex="1" parent="1">
          <mxGeometry x="520" y="160" width="80" height="50" as="geometry" />
        </mxCell>
        <mxCell id="ihmXr_cGSfMxpuINrXd8-131" value="1" style="text;strokeColor=none;align=center;fillColor=none;html=1;verticalAlign=middle;whiteSpace=wrap;rounded=0;" vertex="1" parent="1">
          <mxGeometry x="282.5" y="425" width="60" height="30" as="geometry" />
        </mxCell>
        <mxCell id="ihmXr_cGSfMxpuINrXd8-135" value="" style="edgeStyle=orthogonalEdgeStyle;rounded=0;orthogonalLoop=1;jettySize=auto;html=1;exitX=0.75;exitY=0;exitDx=0;exitDy=0;" edge="1" parent="1" source="ihmXr_cGSfMxpuINrXd8-1" target="ihmXr_cGSfMxpuINrXd8-134">
          <mxGeometry relative="1" as="geometry">
            <mxPoint x="363" y="470" as="sourcePoint" />
            <mxPoint x="488" y="430" as="targetPoint" />
          </mxGeometry>
        </mxCell>
        <mxCell id="ihmXr_cGSfMxpuINrXd8-134" value="1" style="text;strokeColor=none;align=center;fillColor=none;html=1;verticalAlign=middle;whiteSpace=wrap;rounded=0;" vertex="1" parent="1">
          <mxGeometry x="320" y="430" width="60" height="30" as="geometry" />
        </mxCell>
        <mxCell id="ihmXr_cGSfMxpuINrXd8-136" value="1" style="text;strokeColor=none;align=center;fillColor=none;html=1;verticalAlign=middle;whiteSpace=wrap;rounded=0;" vertex="1" parent="1">
          <mxGeometry x="460" y="130" width="60" height="30" as="geometry" />
        </mxCell>
        <mxCell id="ihmXr_cGSfMxpuINrXd8-137" value="1" style="text;strokeColor=none;align=center;fillColor=none;html=1;verticalAlign=middle;whiteSpace=wrap;rounded=0;" vertex="1" parent="1">
          <mxGeometry x="580" y="770" width="60" height="30" as="geometry" />
        </mxCell>
        <mxCell id="ihmXr_cGSfMxpuINrXd8-138" value="N" style="text;strokeColor=none;align=center;fillColor=none;html=1;verticalAlign=middle;whiteSpace=wrap;rounded=0;" vertex="1" parent="1">
          <mxGeometry x="145" y="180" width="60" height="30" as="geometry" />
        </mxCell>
        <mxCell id="ihmXr_cGSfMxpuINrXd8-140" value="N" style="text;strokeColor=none;align=center;fillColor=none;html=1;verticalAlign=middle;whiteSpace=wrap;rounded=0;" vertex="1" parent="1">
          <mxGeometry x="610" y="499.5" width="60" height="30" as="geometry" />
        </mxCell>
        <mxCell id="ihmXr_cGSfMxpuINrXd8-141" value="N" style="text;strokeColor=none;align=center;fillColor=none;html=1;verticalAlign=middle;whiteSpace=wrap;rounded=0;" vertex="1" parent="1">
          <mxGeometry x="332.5" y="820" width="60" height="30" as="geometry" />
        </mxCell>
      </root>
    </mxGraphModel>
  </diagram>
</mxfile>
